<svg width="362" height="320" viewBox="0 0 362 320" fill="none" xmlns="http://www.w3.org/2000/svg">
<path d="M110.476 28.9021C110.476 28.9021 107.34 133.199 115.007 139.131C122.676 145.059 204.518 156.406 204.518 156.406C204.518 156.406 249.885 96.2238 228.972 54.714C208.061 13.2063 110.476 28.9021 110.476 28.9021Z" fill="black"/>
<path d="M200.871 122.773L212.94 205.058C214.186 214.188 210.522 218.253 204.575 225.289C199.131 231.732 182.484 249.021 178.671 251.288C169.593 256.682 163.303 248.861 158.335 238.5C153.127 227.635 150.297 215.782 149.597 203.751L147.469 167.097L200.871 122.773Z" fill="white"/>
<path d="M200.871 122.773L212.94 205.058C214.186 214.188 210.522 218.253 204.575 225.289C199.131 231.732 182.484 249.021 178.671 251.288C169.593 256.682 163.303 248.861 158.335 238.5C153.127 227.635 150.297 215.782 149.597 203.751L147.469 167.097L200.871 122.773Z" stroke="black" stroke-width="2.17733" stroke-miterlimit="10"/>
<mask id="mask0_1_861" style="mask-type:luminance" maskUnits="userSpaceOnUse" x="149" y="156" width="56" height="38">
<path d="M149.742 156.407H204.518V193.603H149.742V156.407Z" fill="white"/>
</mask>
<g mask="url(#mask0_1_861)">
<g opacity="0.100006">
<path d="M204.518 156.407C204.518 156.407 203.545 190.612 178.741 193.332C153.938 196.052 149.742 177.448 149.742 177.448L204.518 156.407Z" fill="black"/>
</g>
</g>
<path d="M176.124 178.379H142.52C127.083 178.379 114.569 165.854 114.569 150.402L113.848 42.3006C113.275 38.033 113.504 33.6486 114.917 29.5833C118.714 18.6453 129.105 10.7964 141.325 10.7964H198.575C213.463 10.7964 225.629 22.4415 226.48 37.1277C226.542 38.2207 226.486 39.3178 226.4 40.4108L204.075 150.402C204.075 165.854 191.56 178.379 176.124 178.379Z" fill="white"/>
<path d="M176.124 178.379H142.52C127.083 178.379 114.569 165.854 114.569 150.402L113.848 42.3006C113.275 38.033 113.504 33.6486 114.917 29.5833C118.714 18.6453 129.105 10.7964 141.325 10.7964H198.575C213.463 10.7964 225.629 22.4415 226.48 37.1277C226.542 38.2207 226.486 39.3178 226.4 40.4108L204.075 150.402C204.075 165.854 191.56 178.379 176.124 178.379Z" stroke="black" stroke-width="2.17733" stroke-miterlimit="10"/>
<path d="M203.92 125.025C203.92 125.025 213.927 110.601 223.255 124.641C232.587 138.683 215.59 152.781 200.852 143.705" fill="white"/>
<path d="M203.92 125.025C203.92 125.025 213.927 110.601 223.255 124.641C232.587 138.683 215.59 152.781 200.852 143.705" stroke="black" stroke-width="1.908" stroke-miterlimit="10" stroke-linecap="round"/>
<path d="M207.087 135.605C207.087 135.605 214.554 129.251 217.932 129.372L207.087 135.605Z" fill="white"/>
<path d="M207.087 135.605C207.087 135.605 214.554 129.251 217.932 129.372" stroke="black" stroke-width="1.908" stroke-miterlimit="10" stroke-linecap="round"/>
<path d="M212.248 131.345C212.248 131.345 210.783 127.221 208.993 126.695L212.248 131.345Z" fill="white"/>
<path d="M212.248 131.345C212.248 131.345 210.783 127.221 208.993 126.695" stroke="black" stroke-width="1.908" stroke-miterlimit="10" stroke-linecap="round"/>
<path d="M125.638 111.373C125.638 115.685 127.545 119.183 129.899 119.183C132.252 119.183 134.159 115.685 134.159 111.373C134.159 107.062 132.252 103.564 129.899 103.564C127.545 103.564 125.638 107.062 125.638 111.373Z" fill="black"/>
<path d="M163.671 112.866C163.671 117.177 165.578 120.675 167.932 120.675C170.285 120.675 172.192 117.177 172.192 112.866C172.192 108.554 170.285 105.056 167.932 105.056C165.578 105.056 163.671 108.554 163.671 112.866Z" fill="black"/>
<mask id="mask1_1_861" style="mask-type:luminance" maskUnits="userSpaceOnUse" x="204" y="125" width="23" height="23">
<path d="M204.677 125.737H226.554V147.098H204.677V125.737Z" fill="white"/>
</mask>
<g mask="url(#mask1_1_861)">
<g opacity="0.100006">
<path d="M220.873 132.785C220.715 135.972 218.374 138.936 215.313 139.826C213.421 140.377 211.405 140.183 209.438 140.256C208.317 140.296 207.158 140.433 206.197 141.011C205.235 141.587 204.516 142.698 204.705 143.804C204.887 144.861 205.81 145.631 206.764 146.117C208.805 147.154 211.22 147.321 213.456 146.845C215.696 146.372 217.772 145.289 219.629 143.956C222.446 141.937 224.88 139.226 225.968 135.934C226.912 133.081 226.962 128.406 224.251 126.396C220.335 123.492 220.96 131.014 220.873 132.785Z" fill="black"/>
</g>
</g>
<path d="M149.828 211.106L57.2733 236.59L43 314.535" stroke="black" stroke-width="2.17733" stroke-miterlimit="10" stroke-linecap="round"/>
<path d="M215.146 211.105L304.555 238.142L318.829 316.089" stroke="black" stroke-width="2.17733" stroke-miterlimit="10" stroke-linecap="round"/>
<path d="M146.166 96.4396C146.166 96.4396 144.082 127.466 147.729 126.684C151.376 125.902 151.376 111.301 151.376 111.301" fill="white"/>
<path d="M146.166 96.4396C146.166 96.4396 144.082 127.466 147.729 126.684C151.376 125.902 151.376 111.301 151.376 111.301" stroke="black" stroke-width="2.17733" stroke-miterlimit="10" stroke-linecap="round"/>
<path d="M133.66 96.8766L125.583 96.5033C124.382 96.447 123.488 95.6877 123.616 94.8325L123.98 92.34C124.091 91.5849 124.962 91.0072 126.018 90.9821L134.311 90.7965C135.619 90.7673 136.651 91.587 136.476 92.5173L135.892 95.5688C135.744 96.3573 134.769 96.9288 133.66 96.8766Z" fill="black"/>
<path d="M163.797 96.8766L171.876 96.5033C173.077 96.447 173.971 95.6877 173.844 94.8325L173.479 92.34C173.369 91.5849 172.498 91.0072 171.441 90.9821L163.147 90.7965C161.84 90.7673 160.806 91.587 160.983 92.5173L161.567 95.5688C161.715 96.3573 162.69 96.9288 163.797 96.8766Z" fill="black"/>
<path d="M138.492 134.423L163.4 134.021C163.4 134.021 167.82 153.926 151.348 153.523C132.054 153.052 138.492 134.423 138.492 134.423Z" fill="black"/>
<path d="M158.78 150.105C158.78 150.105 156.973 146.487 151.751 145.884C146.526 145.281 142.71 148.698 142.71 148.698C142.71 148.698 148.537 154.127 158.78 150.105Z" fill="white"/>
<path d="M146.482 167.784H153.563" stroke="black" stroke-width="2.17733" stroke-miterlimit="10" stroke-linecap="round" stroke-dasharray="3.27 3.27"/>
<path d="M99.6082 117.816C99.6082 129.071 108.726 138.197 119.971 138.197C131.216 138.197 140.334 129.071 140.334 117.816C140.334 106.561 131.216 97.4356 119.971 97.4356C108.726 97.4356 99.6082 106.561 99.6082 117.816Z" stroke="black" stroke-width="2.17733" stroke-miterlimit="10"/>
<path d="M154.893 117.816C154.893 129.071 164.011 138.197 175.256 138.197C186.503 138.197 195.619 129.071 195.619 117.816C195.619 106.561 186.503 97.4356 175.256 97.4356C164.011 97.4356 154.893 106.561 154.893 117.816Z" stroke="black" stroke-width="2.17733" stroke-miterlimit="10"/>
<path d="M140.531 114.961C140.531 114.961 147.023 109.645 154.5 115.748" stroke="black" stroke-width="2.17733" stroke-miterlimit="10"/>
<path d="M195.619 117.816L210.227 119.539" stroke="black" stroke-width="2.17733" stroke-miterlimit="10"/>
<path d="M112.248 41.1665C112.248 41.1665 121.495 65.7812 156.517 73.8554C191.536 81.9275 188.389 64.2064 188.389 64.2064C188.389 64.2064 198.424 94.9242 217.311 93.1534C236.198 91.3804 261.381 -1.16927 174.42 0.0112991C87.4572 1.19187 112.248 41.1665 112.248 41.1665Z" fill="black"/>
<path d="M125.847 218.025C125.847 218.025 123.415 274.342 173.779 272.256C224.143 270.17 233.867 217.33 233.867 217.33" stroke="black" stroke-width="2.17733" stroke-miterlimit="10" stroke-linecap="round"/>
<path d="M57.2729 236.589C57.2729 236.589 96.6709 252.093 132.099 249.661" stroke="black" stroke-width="2.17733" stroke-miterlimit="10" stroke-linecap="round"/>
<path d="M304.556 238.143C304.556 238.143 267.907 254.179 217.891 251.05" stroke="black" stroke-width="2.17733" stroke-miterlimit="10" stroke-linecap="round"/>
<path d="M53.6016 263.218C53.6016 263.218 141.477 325.793 309.587 268.433" stroke="black" stroke-width="2.17733" stroke-miterlimit="10" stroke-linecap="round"/>
<path d="M48.7397 285.119C48.7397 285.119 76.1797 320.23 180.379 317.798C284.579 315.364 316.464 300.068 316.464 300.068" stroke="black" stroke-width="2.17733" stroke-miterlimit="10" stroke-linecap="round"/>
<mask id="mask2_1_861" style="mask-type:luminance" maskUnits="userSpaceOnUse" x="176" y="142" width="10" height="11">
<path d="M176.211 142.588H185.935V152.323H176.211V142.588Z" fill="white"/>
</mask>
<g mask="url(#mask2_1_861)">
<g opacity="0.100006">
<path d="M176.211 147.456C176.211 150.144 178.387 152.322 181.073 152.322C183.76 152.322 185.935 150.144 185.935 147.456C185.935 144.767 183.76 142.589 181.073 142.589C178.387 142.589 176.211 144.767 176.211 147.456Z" fill="black"/>
</g>
</g>
<path d="M131.406 218.025C131.406 218.025 131.406 266.347 174.473 265.304C208.849 264.472 227.269 216.634 227.269 216.634" stroke="black" stroke-width="2.17733" stroke-miterlimit="10" stroke-linecap="round"/>
<path d="M163.248 200.768C163.248 200.768 171.367 202.889 175.251 199.001L163.248 200.768Z" fill="white"/>
<path d="M163.248 200.768C163.248 200.768 171.367 202.889 175.251 199.001" stroke="black" stroke-width="1.41333" stroke-miterlimit="10" stroke-linecap="round"/>
</svg>
